<svg width="24" height="28" viewBox="0 0 24 28" fill="none" xmlns="http://www.w3.org/2000/svg">
<path d="M19.6627 14.7715C19.6497 12.5514 20.6556 10.8783 22.6868 9.64453C21.5507 8.01692 19.832 7.12174 17.5664 6.94922C15.4212 6.77994 13.0742 8.19922 12.2148 8.19922C11.3066 8.19922 9.22978 7.00781 7.59566 7.00781C4.22327 7.05989 0.639282 9.69661 0.639282 15.0612C0.639282 16.6465 0.928996 18.2839 1.50842 19.9701C2.28316 22.1901 5.07613 27.6296 7.98954 27.5417C9.51298 27.5059 10.5905 26.4609 12.5729 26.4609C14.4967 26.4609 15.4928 27.5417 17.192 27.5417C20.1315 27.4993 22.6575 22.5547 23.3932 20.3281C19.4511 18.4694 19.6627 14.8854 19.6627 14.7715ZM16.2415 4.8431C17.8919 2.88346 17.7421 1.09961 17.6933 0.45833C16.235 0.542966 14.5488 1.45117 13.5885 2.56771C12.5306 3.76562 11.9088 5.24674 12.0423 6.91666C13.6178 7.03711 15.0566 6.22656 16.2415 4.8431Z" fill="white"/>
</svg>
