<svg width="26" height="22" viewBox="0 0 26 22" fill="none" xmlns="http://www.w3.org/2000/svg">
<path d="M4.66728 0.583308C3.56221 0.583308 2.5024 1.02229 1.721 1.8037C0.939597 2.5851 0.50061 3.64491 0.50061 4.74997V5.16872L13.0006 11.9L25.5006 5.17081V4.74997C25.5006 3.64491 25.0616 2.5851 24.2802 1.8037C23.4988 1.02229 22.439 0.583308 21.3339 0.583308H4.66728ZM25.5006 7.53539L13.4944 14C13.3426 14.0817 13.173 14.1244 13.0006 14.1244C12.8283 14.1244 12.6586 14.0817 12.5069 14L0.50061 7.53539V17.25C0.50061 18.355 0.939597 19.4148 1.721 20.1963C2.5024 20.9777 3.56221 21.4166 4.66728 21.4166H21.3339C22.439 21.4166 23.4988 20.9777 24.2802 20.1963C25.0616 19.4148 25.5006 18.355 25.5006 17.25V7.53539Z" fill="white"/>
</svg>
