<svg width="26" height="26" viewBox="0 0 26 26" fill="none" xmlns="http://www.w3.org/2000/svg">
<path d="M25.0116 10.7344H13.2506V15.5684H19.9693C19.6796 17.1309 18.8007 18.4525 17.4758 19.3379C16.356 20.0866 14.927 20.5293 13.2473 20.5293C9.99535 20.5293 7.2447 18.332 6.26163 15.3796C6.01424 14.6309 5.87101 13.8301 5.87101 13.0065C5.87101 12.1829 6.01424 11.3822 6.26163 10.6335C7.24796 7.68424 9.99861 5.48698 13.2506 5.48698C15.0832 5.48698 16.7271 6.11849 18.0227 7.35547L21.6034 3.77148C19.4387 1.75325 16.6164 0.516273 13.2506 0.516273C8.371 0.516273 4.149 3.31575 2.09497 7.39778C1.24862 9.08398 0.766846 10.9915 0.766846 13.0098C0.766846 15.028 1.24862 16.9323 2.09497 18.6185C4.149 22.7005 8.371 25.5 13.2506 25.5C16.6229 25.5 19.4485 24.3802 21.5123 22.4727C23.8723 20.2982 25.2362 17.095 25.2362 13.2897C25.2362 12.4043 25.1581 11.5547 25.0116 10.7344Z" fill="white"/>
</svg>
