<svg width="181" height="25" viewBox="0 0 181 25" fill="none" xmlns="http://www.w3.org/2000/svg">
<path d="M52.2557 5.11279C52.6496 5.11279 52.8465 5.2508 52.8465 5.52707C52.8465 5.87971 52.5733 6.38248 52.0267 7.03486L51.859 7.22883C51.3771 7.81647 50.7658 8.21915 50.0252 8.43661C49.7664 8.51322 49.5549 8.5514 49.3903 8.5514C49.1788 8.5514 49.0142 8.54547 48.8966 8.53361C48.7789 8.522 48.6084 8.50729 48.3853 8.48949L47.6357 8.42784C47.0008 8.38682 46.366 8.34865 45.7311 8.31331C44.5616 9.45943 43.5682 10.7085 42.7512 12.0604C42.4514 12.5601 42.3016 12.8686 42.3016 12.9863C42.3016 13.5507 42.4896 13.9503 42.8657 14.1855C43.2478 14.4205 43.7593 14.5381 44.3998 14.5381C45.0465 14.5381 45.596 14.5056 46.0487 14.4412C46.5071 14.3705 46.9363 14.2853 47.3359 14.1855C47.7414 14.0795 48.1147 13.965 48.4557 13.8416C48.8024 13.7122 49.1053 13.5917 49.3637 13.48C49.6284 13.3683 49.8459 13.2685 50.0164 13.1802L50.3602 13.0038C50.5424 12.9568 50.7129 12.9775 50.8715 13.0657C51.1537 13.2362 51.2948 13.4302 51.2948 13.6477C51.2948 13.8651 51.1684 14.0826 50.9156 14.3001C48.8759 16.0575 46.5571 17.1245 43.959 17.5006C43.1126 17.6241 42.3103 17.6858 41.5519 17.6858C40.7938 17.6858 40.2 17.6445 39.771 17.5622C39.3477 17.4859 38.9922 17.3801 38.7041 17.2449C38.4218 17.1097 38.1987 16.9539 38.0341 16.7775C37.8696 16.5954 37.746 16.4042 37.6637 16.2046C37.5401 15.9048 37.4785 15.555 37.4785 15.1552C37.4785 14.7497 37.5345 14.4177 37.6462 14.1589C37.7635 13.9002 37.9077 13.6505 38.078 13.4096C38.2485 13.1686 38.4337 12.9305 38.6336 12.6953C38.8392 12.4603 39.0038 12.2544 39.1274 12.0782C39.2566 11.9018 39.4005 11.7254 39.5595 11.5492C40.4646 10.6086 41.0729 9.98566 41.3845 9.67998L42.9011 8.23385C41.9722 8.23385 41.3257 8.28389 40.9612 8.38372C40.6026 8.47787 40.2941 8.5661 40.0354 8.64839C39.7828 8.73068 39.5241 8.8189 39.2597 8.9128C38.995 9.00696 38.7541 9.09802 38.5366 9.18624C38.037 9.3859 37.7432 9.52417 37.6549 9.60053C37.5667 9.67121 37.4578 9.70629 37.3286 9.70629C37.1994 9.70629 37.0789 9.6859 36.9672 9.64463C36.8614 9.59768 36.7645 9.53294 36.6762 9.45066C36.4822 9.28014 36.3853 9.09209 36.3853 8.88649C36.3853 8.67471 36.4528 8.46911 36.588 8.26919C36.7291 8.06927 36.9437 7.84304 37.2316 7.59024C37.5198 7.33176 37.8164 7.08181 38.1221 6.84087L38.9597 6.17945C39.2184 5.97386 39.3918 5.80619 39.48 5.67695C39.7387 5.30084 40.3589 5.04805 41.3404 4.91881C41.6226 4.87754 41.9105 4.85689 42.2046 4.85689C42.5043 4.85689 42.9098 4.88063 43.4211 4.92758C43.9386 4.97453 44.5556 5.02457 45.2728 5.07745C47.1889 5.23017 48.5968 5.30678 49.4961 5.30678C50.4013 5.30678 50.9185 5.29492 51.048 5.27144L51.4447 5.20979C51.8268 5.14504 52.0971 5.11279 52.2557 5.11279ZM69.1581 12.4043C68.8289 12.322 68.1265 12.281 67.0508 12.281C66.175 14.1032 65.5608 15.7284 65.2079 17.1567C65.0083 17.9326 64.253 18.3206 62.942 18.3206C61.8604 18.3206 61.1727 18.0678 60.8788 17.5622C60.7731 17.392 60.7318 17.2274 60.7555 17.0685C60.779 16.9039 60.8554 16.6924 60.9846 16.4336C61.1141 16.1692 61.2903 15.8429 61.5137 15.4549L62.2896 14.1324L63.2417 12.572L59.6886 12.8629C58.8657 14.2853 57.9546 15.6254 56.9553 16.8835C56.4675 17.4771 55.7503 17.774 54.8039 17.774C54.0867 17.774 53.455 17.621 52.9084 17.3153C52.5792 17.1332 52.4203 16.9686 52.4322 16.8216C52.4381 16.616 52.5557 16.4102 52.7848 16.2046C53.7253 15.3817 54.6628 14.3764 55.5974 13.189L54.2485 13.2948C53.5726 13.3126 53.1493 13.1655 52.9788 12.8539C52.8436 12.6014 52.776 12.3132 52.776 11.99C52.776 11.7666 52.8289 11.5814 52.9347 11.4346C53.0405 11.2876 53.1581 11.1965 53.2873 11.1612C53.4168 11.1258 53.5667 11.1052 53.7372 11.0995L57.4049 10.6499C58.8569 8.31047 59.6767 6.99951 59.8648 6.71731C60.0531 6.42942 60.2381 6.18849 60.4204 5.9945C60.8729 5.53585 61.3344 5.30678 61.8047 5.30678C62.1338 5.30678 62.4423 5.43886 62.7305 5.70352C62.8597 5.8209 62.9245 5.95632 62.9245 6.10903C62.9245 6.40878 62.7599 6.89658 62.4307 7.5727L61.1435 10.1913L65.0934 9.69752C66.1985 8.09868 66.9597 7.03176 67.3771 6.49701C68.2294 5.40945 68.823 4.78363 69.1581 4.61905C69.7929 4.3015 70.2544 4.14287 70.5423 4.14287C70.8304 4.14287 71.0097 4.22231 71.0801 4.38096C71.1506 4.5396 71.1712 4.70418 71.1418 4.87469C71.1183 5.04521 71.0332 5.26267 70.8861 5.52707C70.745 5.78581 70.5598 6.1062 70.3308 6.48824C70.3308 6.48824 69.7457 7.46384 68.5761 9.41531C68.9641 9.45065 69.2316 9.55048 69.3784 9.71505C69.6371 9.99726 69.7663 10.4441 69.7663 11.0554C69.7663 11.4963 69.7106 11.9077 69.5989 12.2898C69.552 12.3661 69.4049 12.4043 69.1581 12.4043ZM72.5879 17.0597C72.1352 16.8598 71.7797 16.6101 71.521 16.3103C71.2682 16.0106 71.1008 15.7284 71.0185 15.464C70.889 15.0701 70.8245 14.7321 70.8245 14.4499C70.8245 14.1677 70.9156 13.8445 71.0977 13.48C71.286 13.1155 71.5945 12.7541 72.0235 12.3955C72.964 11.6136 74.407 10.9437 76.3526 10.3852C75.7296 10.1208 75.3741 9.70061 75.2859 9.12433C75.1977 8.46602 75.4799 7.88121 76.1323 7.36994C77.3372 6.42348 79.6532 5.78272 83.0802 5.44763C84.1381 5.3478 84.9053 5.29775 85.3812 5.29775C85.8633 5.29775 86.2043 5.37436 86.404 5.52707C86.6099 5.68004 86.7303 5.90912 86.7657 6.2148C86.8067 6.51455 86.751 6.76735 86.598 6.9732C86.4453 7.1788 86.2278 7.34338 85.9456 7.46694C85.4225 7.69601 84.7082 7.8108 83.803 7.8108C83.1387 7.8108 82.5333 7.7107 81.9867 7.51104C81.8399 7.45223 81.7251 7.39033 81.6428 7.32584C80.4673 7.69033 79.8002 8.09868 79.6416 8.5514C79.5944 8.66877 79.5768 8.77762 79.5884 8.87746C79.6416 9.23602 79.8766 9.50069 80.294 9.67121C80.7113 9.84146 81.3462 9.95031 82.1985 9.99726C82.4804 10.0207 82.6891 10.0974 82.8243 10.2266C82.9654 10.3558 83.0448 10.491 83.0624 10.6321C83.0859 10.7732 83.0771 10.8849 83.0361 10.9672C82.9948 11.0436 82.9332 11.1083 82.8509 11.1612C82.7098 11.2553 82.4306 11.3345 82.0133 11.3993C81.5959 11.4638 81.1109 11.5551 80.5584 11.6725C80.0058 11.7842 79.4798 11.9046 78.9802 12.0341C78.4805 12.1634 78.0162 12.2957 77.5872 12.4309C77.1639 12.566 76.7965 12.6953 76.4849 12.8188C75.8266 13.0951 75.5093 13.3185 75.5328 13.4888C75.5563 13.6533 75.6238 13.7975 75.7355 13.9208C75.8472 14.0444 75.9971 14.153 76.1852 14.2472C76.5378 14.4117 76.967 14.5175 77.4724 14.5645C77.9839 14.6057 78.4777 14.6264 78.9536 14.6264C79.4357 14.6264 79.9501 14.5879 80.4967 14.5116C81.0493 14.4293 81.5636 14.3264 82.0396 14.203C82.5217 14.0795 82.9626 13.9503 83.3621 13.8151C83.7679 13.674 84.1205 13.5416 84.4203 13.4183L85.1433 13.1186C85.3314 13.0363 85.5019 12.995 85.6546 12.995C86.0601 12.995 86.2895 13.2096 86.3424 13.6386C86.413 14.2206 85.7604 14.8761 84.3849 15.6051C82.5452 16.5866 80.5114 17.2274 78.2837 17.5271C77.7665 17.5975 77.1432 17.6329 76.4145 17.6329C75.6914 17.6329 74.9862 17.5859 74.2984 17.4918C73.6107 17.3976 73.0404 17.2537 72.5879 17.0597ZM100.802 13.7534C101.031 13.6533 101.302 13.6036 101.613 13.6036C101.925 13.6036 102.184 13.627 102.389 13.674C102.595 13.7209 102.827 13.7828 103.086 13.8592C103.874 14.112 104.429 14.2972 104.752 14.4146L106.401 15.0053C106.877 15.1758 107.15 15.2609 107.221 15.2609C107.591 15.2609 107.997 15.1552 108.438 14.9437C108.879 14.7262 109.272 14.4969 109.619 14.2559C109.972 14.015 110.213 13.8739 110.342 13.8326C110.471 13.7916 110.607 13.771 110.748 13.771C110.889 13.771 111.009 13.8179 111.109 13.9121C111.215 14.0003 111.259 14.1295 111.242 14.3001C111.224 14.4646 111.174 14.6411 111.092 14.8291C111.015 15.0172 110.915 15.2112 110.792 15.4111C110.527 15.8282 110.269 16.1517 110.016 16.3808L109.222 17.0597C108.129 17.9768 106.977 18.4351 105.766 18.4351C105.437 18.4351 104.887 18.3118 104.117 18.065L101.393 17.1833C100.223 16.7953 99.4679 16.6013 99.1271 16.6013C98.792 16.6013 98.4629 16.657 98.1394 16.7687C97.8162 16.8745 97.4901 16.9921 97.161 17.1214C96.8315 17.2449 96.4936 17.3594 96.1469 17.4652C95.8059 17.5769 95.5061 17.6329 95.2476 17.6329C94.9948 17.6329 94.8037 17.5947 94.6745 17.5181C94.5509 17.4477 94.4392 17.3535 94.3394 17.2361C94.0866 16.9539 93.972 16.7042 93.9955 16.4865C94.019 16.2634 94.1132 16.0516 94.2777 15.8519C94.4423 15.652 94.6451 15.4493 94.886 15.2434C95.1269 15.0378 95.3885 14.8348 95.6707 14.6351C95.9588 14.4293 96.2351 14.2412 96.4995 14.0707L97.6369 13.3655C97.7132 13.3185 97.8778 13.2125 98.1306 13.0479L102.751 9.89151C104.179 8.88056 104.893 8.35149 104.893 8.30454C104.893 8.26327 104.782 8.24262 104.558 8.24262C103.724 8.24262 103.012 8.24262 102.425 8.24262C101.843 8.24262 101.384 8.24572 101.049 8.25165H100.088C99.0242 8.26326 98.4247 8.29576 98.2895 8.34864C98.1541 8.39559 97.9955 8.48665 97.8133 8.62183L97.2489 9.00979C96.7905 9.32141 96.4085 9.47722 96.1028 9.47722C95.7207 9.47722 95.4767 9.32141 95.371 9.00979C95.2711 8.71597 95.3181 8.43662 95.5121 8.17221C95.706 7.90186 95.9116 7.6666 96.1294 7.46694C96.3525 7.26109 96.5994 7.06425 96.87 6.8762C97.1462 6.68789 97.4194 6.52331 97.6898 6.38246C98.2895 6.06492 98.7273 5.90628 99.0035 5.90628C99.2798 5.90628 99.6061 5.89751 99.9823 5.87971C100.364 5.86217 100.794 5.84153 101.269 5.81805C101.752 5.78864 102.269 5.75331 102.821 5.71229L104.479 5.60652C105.037 5.57118 105.581 5.53585 106.11 5.50076C106.639 5.45949 107.124 5.42415 107.565 5.39474L108.711 5.33308C109.028 5.31554 109.237 5.30678 109.337 5.30678C109.443 5.30678 109.563 5.35656 109.699 5.45665C109.84 5.55648 109.975 5.68882 110.104 5.8534C110.445 6.28239 110.595 6.69976 110.554 7.10527C110.525 7.44036 109.64 8.19283 107.9 9.36242L106.313 10.4028L103.068 12.4131L100.802 13.7534ZM128.02 16.9274C127.656 17.392 127.356 17.6476 127.121 17.6946C126.892 17.7474 126.701 17.7534 126.548 17.7121C126.395 17.6711 126.26 17.6035 126.142 17.5093C125.895 17.2978 125.772 17.0156 125.772 16.663C125.772 16.4042 125.851 16.1458 126.01 15.887C129.437 10.4381 131.3 7.48732 131.6 7.03486C132.305 5.98857 132.714 5.40068 132.826 5.27144L133.046 5.00703C133.704 4.24863 134.56 3.86942 135.612 3.86942C136.429 3.86942 136.987 4.0487 137.287 4.40727C137.358 4.48388 137.393 4.63066 137.393 4.84812C137.399 5.06558 137.41 5.41254 137.428 5.88848L137.472 7.40503C137.49 7.94004 137.51 8.48665 137.534 9.04514L137.587 10.685C137.634 11.7431 137.675 12.6543 137.71 13.4183C137.94 13.0128 138.172 12.5395 138.407 11.9988L139.156 10.2883C139.838 8.7601 140.496 7.55206 141.131 6.66442C141.531 6.09433 142.189 5.80928 143.106 5.80928C143.782 5.80928 144.388 5.95631 144.923 6.25013C145.246 6.42632 145.404 6.58214 145.399 6.71731C145.399 6.84087 145.355 6.95849 145.266 7.07019L145.081 7.32584C144.664 7.9078 144.252 8.51322 143.847 9.14212L142.665 11.0201C141.008 13.7594 140.047 15.3316 139.782 15.7371C139.518 16.1427 139.315 16.428 139.174 16.5925C139.039 16.7512 138.859 16.8864 138.636 16.9981C138.419 17.1098 138.169 17.2096 137.887 17.2978C137.275 17.4918 136.767 17.5888 136.361 17.5888C135.679 17.5888 135.218 17.4918 134.977 17.2978C134.718 17.0628 134.354 15.699 133.884 13.2068L133.584 11.5492C133.49 10.9847 133.405 10.4234 133.328 9.8652C133.134 10.1649 132.884 10.5204 132.579 10.9319L129.987 14.3883L128.02 16.9274ZM150.336 13.7534C150.565 13.6533 150.836 13.6036 151.147 13.6036C151.459 13.6036 151.717 13.627 151.923 13.674C152.129 13.7209 152.361 13.7828 152.62 13.8592C153.407 14.112 153.963 14.2972 154.286 14.4146L155.935 15.0053C156.411 15.1758 156.684 15.2609 156.755 15.2609C157.125 15.2609 157.531 15.1552 157.972 14.9437C158.413 14.7262 158.806 14.4969 159.153 14.2559C159.506 14.015 159.747 13.8739 159.876 13.8326C160.005 13.7916 160.141 13.771 160.282 13.771C160.423 13.771 160.543 13.8179 160.643 13.9121C160.749 14.0003 160.793 14.1295 160.775 14.3001C160.758 14.4646 160.708 14.6411 160.626 14.8291C160.549 15.0172 160.449 15.2112 160.326 15.4111C160.061 15.8282 159.803 16.1517 159.55 16.3808L158.756 17.0597C157.663 17.9768 156.511 18.4351 155.3 18.4351C154.971 18.4351 154.421 18.3118 153.651 18.065L150.927 17.1833C149.757 16.7953 149.002 16.6013 148.661 16.6013C148.326 16.6013 147.997 16.657 147.673 16.7687C147.35 16.8745 147.024 16.9921 146.695 17.1214C146.366 17.2449 146.028 17.3594 145.681 17.4652C145.34 17.5769 145.04 17.6329 144.781 17.6329C144.529 17.6329 144.338 17.5947 144.208 17.5181C144.085 17.4477 143.973 17.3535 143.873 17.2361C143.621 16.9539 143.506 16.7042 143.53 16.4865C143.553 16.2634 143.647 16.0516 143.812 15.8519C143.976 15.652 144.179 15.4493 144.42 15.2434C144.661 15.0378 144.923 14.8348 145.205 14.6351C145.493 14.4293 145.769 14.2412 146.034 14.0707L147.171 13.3655C147.247 13.3185 147.412 13.2125 147.665 13.0479L152.285 9.89151C153.713 8.88056 154.427 8.35149 154.427 8.30454C154.427 8.26327 154.316 8.24262 154.092 8.24262C153.258 8.24262 152.546 8.24262 151.958 8.24262C151.376 8.24262 150.918 8.24572 150.583 8.25165H149.622C148.558 8.26326 147.958 8.29576 147.823 8.34864C147.688 8.39559 147.529 8.48665 147.347 8.62183L146.783 9.00979C146.324 9.32141 145.942 9.47722 145.637 9.47722C145.255 9.47722 145.011 9.32141 144.905 9.00979C144.805 8.71597 144.852 8.43662 145.046 8.17221C145.24 7.90186 145.446 7.6666 145.663 7.46694C145.887 7.26109 146.133 7.06425 146.404 6.8762C146.68 6.68789 146.953 6.52331 147.224 6.38246C147.823 6.06492 148.261 5.90628 148.538 5.90628C148.814 5.90628 149.14 5.89751 149.516 5.87971C149.898 5.86217 150.327 5.84153 150.804 5.81805C151.285 5.78864 151.803 5.75331 152.355 5.71229L154.013 5.60652C154.571 5.57118 155.115 5.53585 155.644 5.50076C156.173 5.45949 156.658 5.42415 157.099 5.39474L158.245 5.33308C158.562 5.31554 158.771 5.30678 158.871 5.30678C158.977 5.30678 159.097 5.35656 159.233 5.45665C159.373 5.55648 159.509 5.68882 159.638 5.8534C159.979 6.28239 160.129 6.69976 160.088 7.10527C160.058 7.44036 159.174 8.19283 157.434 9.36242L155.847 10.4028L152.602 12.4131L150.336 13.7534ZM173.551 5.11279C173.839 5.0127 174.16 4.96291 174.512 4.96291C174.871 4.96291 175.23 4.98923 175.588 5.04211C175.953 5.09499 176.335 5.18038 176.734 5.29775C177.134 5.41538 177.534 5.56525 177.933 5.74763C178.333 5.92975 178.692 6.14722 179.009 6.40002C179.72 6.96418 180.076 7.63435 180.076 8.4103C180.076 9.32734 179.591 10.3324 178.621 11.4256C177.234 12.9894 175.247 14.3823 172.661 15.6051C171.033 16.3691 169.399 16.9098 167.758 17.2274C166.947 17.3801 166.157 17.4564 165.387 17.4564C164.623 17.4564 163.961 17.3535 163.403 17.1479C162.851 16.9364 162.398 16.6748 162.045 16.3632C161.698 16.0516 161.446 15.7165 161.287 15.3579C161.128 14.9994 161.049 14.6204 161.049 14.2206C161.049 13.821 161.166 13.3536 161.402 12.8188C161.642 12.2838 161.951 11.7548 162.327 11.2316C162.709 10.7028 163.136 10.1913 163.606 9.69752C164.082 9.19785 164.555 8.73662 165.025 8.31331C165.836 7.59025 166.615 6.9701 167.362 6.45289C168.114 5.92975 168.749 5.51831 169.266 5.21856C169.783 4.91881 170.216 4.68948 170.562 4.53083C171.15 4.25456 171.509 4.11629 171.638 4.11629C171.767 4.11629 171.911 4.15447 172.07 4.23109C172.235 4.30744 172.414 4.39851 172.608 4.50427C173.09 4.77461 173.404 4.97761 173.551 5.11279ZM165.343 14.8642C165.448 14.8701 165.646 14.8732 165.933 14.8732C166.222 14.8732 166.639 14.7997 167.186 14.6527C167.732 14.5056 168.29 14.3088 168.861 14.0619C169.431 13.8091 170.001 13.5182 170.571 13.189C171.147 12.8539 171.697 12.5044 172.22 12.1399C172.743 11.7754 173.231 11.4052 173.684 11.0289C174.142 10.6468 174.539 10.2795 174.874 9.92685C175.591 9.18031 175.949 8.61305 175.949 8.22508C175.949 7.8255 175.709 7.52859 175.226 7.33461C174.903 7.19944 174.557 7.13185 174.186 7.13185C173.569 7.13185 173.061 7.18473 172.661 7.29049C170.945 8.09584 169.272 9.14807 167.644 10.4469C166.48 11.3758 165.648 12.2544 165.149 13.0832C164.89 13.5125 164.761 13.9121 164.761 14.2825C164.761 14.6467 164.955 14.8407 165.343 14.8642Z" fill="white"/>
<path d="M118.392 19.225C119.029 19.225 119.646 19.1458 120.235 18.9975C119.915 18.6461 119.627 18.2675 119.374 17.8658C119.043 18.1707 118.706 18.3147 118.392 18.3147C117.785 18.3147 117.092 17.7773 116.524 16.5776C116.307 16.1107 116.135 15.6257 116.008 15.1281H118.636C118.658 14.8149 118.714 14.5098 118.799 14.2175H115.81C115.682 13.4655 115.618 12.704 115.62 11.9415C115.62 11.1374 115.687 10.3708 115.81 9.66525H120.974C121.071 10.2235 121.134 10.8207 121.156 11.4444C121.447 11.3072 121.752 11.2032 122.067 11.1338C122.04 10.6419 121.988 10.1518 121.91 9.66525H124.435C124.652 10.2206 124.79 10.8124 124.84 11.4307C125.181 11.5881 125.498 11.7875 125.783 12.0233L125.784 11.9415C125.784 10.5008 125.351 9.09259 124.539 7.89488C123.726 6.69691 122.572 5.76335 121.221 5.21208C119.87 4.66082 118.384 4.51663 116.95 4.79781C115.516 5.07873 114.199 5.77238 113.165 6.79107C112.131 7.80975 111.427 9.10754 111.142 10.5204C110.857 11.9332 111.003 13.3977 111.562 14.7288C112.122 16.0596 113.069 17.1972 114.285 17.9976C115.501 18.7978 116.93 19.225 118.392 19.225ZM118.392 5.56807C118.999 5.56807 119.692 6.1054 120.261 7.30543C120.461 7.72952 120.636 8.21758 120.777 8.75491H116.007C116.148 8.21758 116.323 7.72952 116.524 7.30543C117.091 6.1054 117.784 5.56807 118.392 5.56807ZM115.686 6.9203C115.414 7.50922 115.202 8.12368 115.055 8.75491H112.789C113.569 7.42642 114.808 6.41857 116.28 5.91606C116.057 6.21632 115.858 6.55683 115.686 6.9203ZM114.873 9.66525C114.754 10.4182 114.695 11.1792 114.696 11.9415C114.696 12.7334 114.758 13.5001 114.874 14.2175H112.349C112.067 13.4908 111.923 12.7193 111.924 11.9415C111.924 11.1403 112.074 10.3718 112.349 9.66525H114.874H114.873ZM115.055 15.1281C115.218 15.8044 115.432 16.4228 115.686 16.9624C115.858 17.3259 116.057 17.6664 116.28 17.9667C114.808 17.4642 113.569 16.4566 112.789 15.1281H115.056H115.055ZM120.504 5.91606C121.976 6.41857 123.215 7.42616 123.996 8.75491H121.728C121.581 8.12368 121.369 7.50922 121.097 6.9203C120.932 6.56741 120.734 6.23129 120.504 5.91606H120.504ZM123.012 11.9415C124.926 11.9415 126.477 13.5138 126.477 15.4531C126.477 16.907 125.384 18.4302 123.243 20.0572C123.177 20.1078 123.096 20.1353 123.012 20.1353C122.929 20.1353 122.847 20.1078 122.781 20.0572C120.64 18.4302 119.547 16.907 119.547 15.4531C119.547 13.5138 121.099 11.9415 123.012 11.9415ZM123.012 14.2822C122.375 14.2822 121.857 14.8067 121.857 15.4531C121.857 16.0996 122.375 16.624 123.012 16.624C123.65 16.624 124.167 16.0996 124.167 15.4531C124.167 14.8067 123.65 14.2822 123.012 14.2822Z" fill="white"/>
<path d="M25.1617 16.0714H13.0836C12.5274 16.0714 12.0782 15.6231 12.0782 15.0681C12.0782 14.7906 12.1905 14.5398 12.3723 14.3583C12.5568 14.1769 12.8082 14.0648 13.0836 14.0648H17.1105C17.6667 14.0648 18.1159 13.6165 18.1159 13.0615C18.1159 12.5065 17.6667 12.0582 17.1105 12.0582H15.097C14.5409 12.0582 14.0917 11.61 14.0917 11.055C14.0917 10.7774 14.2039 10.5266 14.3858 10.3452C14.5703 10.1637 14.8217 10.0517 15.097 10.0517H19.124C19.6802 10.0517 20.1294 9.60335 20.1294 9.04835C20.1294 8.49334 19.6802 8.04504 19.124 8.04504H17.1105C16.5543 8.04504 16.1051 7.59678 16.1051 7.04173C16.1051 6.76423 16.2174 6.51342 16.3993 6.33198C16.5838 6.15054 16.8351 6.03848 17.1105 6.03848H23.1483C23.7045 6.03848 24.1536 5.59017 24.1536 5.03517C24.1536 4.48017 23.7045 4.03186 23.1483 4.03186H17.1105C16.8752 4.03186 16.6586 3.94917 16.4848 3.81305C16.2522 3.62893 16.1051 3.34611 16.1051 3.02592C16.1051 2.74837 16.2174 2.49756 16.3993 2.31612C16.5758 2.14268 16.8137 2.0333 17.0784 2.02525V2.00925H29.1887C29.7448 2.00925 30.1942 1.56099 30.1942 1.00594C30.1942 0.450939 29.7448 0.00268426 29.1887 0.00268426H15.097C15.0917 0.00268426 15.089 0.00268399 15.0837 0.00531653C15.0784 -1.63834e-07 15.073 0 15.0649 0H3.01885C1.35034 0 0 1.3475 0 3.01255C0 4.67761 1.35034 6.02511 3.01885 6.02511H7.76511L1.20328 21.3067C0.633719 22.6329 1.60972 24.1058 3.05364 24.1058H15.0997C16.4126 24.1058 17.5276 23.2679 17.9421 22.0966H23.151C23.7071 22.0966 24.1563 21.6482 24.1563 21.0932C24.1563 20.5382 23.7071 20.0899 23.151 20.0899H11.0728C10.5166 20.0899 10.0674 19.6417 10.0674 19.0866C10.0674 18.8091 10.1797 18.5583 10.3615 18.3769C10.546 18.1954 10.7973 18.0833 11.0728 18.0833H25.1644C25.7206 18.0833 26.1698 17.6351 26.1698 17.0801C26.1698 16.5197 25.7179 16.0714 25.1617 16.0714ZM23.151 8.03435C22.5948 8.03435 22.1455 8.48266 22.1455 9.03766C22.1455 9.59266 22.5948 10.041 23.151 10.041H25.1644C25.7206 10.041 26.1698 9.59266 26.1698 9.03766C26.1698 8.48266 25.7206 8.03435 25.1644 8.03435H23.151ZM29.1887 20.0873H27.1752C26.619 20.0873 26.1698 20.5356 26.1698 21.0906C26.1698 21.6456 26.619 22.0939 27.1752 22.0939H29.1887C29.7448 22.0939 30.1942 21.6456 30.1942 21.0906C30.1968 20.5382 29.7448 20.0873 29.1887 20.0873Z" fill="white"/>
<path d="M7.56438 3.01255H12.3106L5.74876 18.2915C5.17925 19.6176 6.1552 21.0906 7.59912 21.0906H19.6452C20.5383 21.0906 21.3378 20.701 21.8913 20.0873H20.4207H11.0726C10.5164 20.0873 10.0672 19.639 10.0672 19.084C10.0672 18.8064 10.1795 18.5556 10.3613 18.3742C10.5458 18.1928 10.7972 18.0807 11.0726 18.0807H25.1642C25.7204 18.0807 26.1696 17.6324 26.1696 17.0774C26.1696 16.5224 25.7204 16.0741 25.1642 16.0741H13.0834C12.5272 16.0741 12.078 15.6258 12.078 15.0708C12.078 14.7933 12.1903 14.5425 12.3721 14.361C12.5566 14.1796 12.808 14.0675 13.0834 14.0675H17.1103C17.6665 14.0675 18.1158 13.6192 18.1158 13.0642C18.1158 12.5092 17.6665 12.0609 17.1103 12.0609H15.0969C14.5407 12.0609 14.0915 11.6126 14.0915 11.0576C14.0915 10.7801 14.2037 10.5293 14.3856 10.3478C14.5701 10.1664 14.8215 10.0543 15.0969 10.0543H19.1238C19.68 10.0543 20.1292 9.60603 20.1292 9.05103C20.1292 8.49598 19.68 8.04772 19.1238 8.04772H17.1103C16.5541 8.04772 16.105 7.59942 16.105 7.04442C16.105 6.76692 16.2172 6.5161 16.3991 6.33466C16.5836 6.15317 16.8349 6.04111 17.1103 6.04111H23.1481C23.7043 6.04111 24.1535 5.59285 24.1535 5.03785C24.1535 4.4828 23.7043 4.03455 23.1481 4.03455H17.1103C16.8751 4.03455 16.6585 3.9518 16.4846 3.81574C16.252 3.63161 16.105 3.34874 16.105 3.02856C16.105 2.75105 16.2172 2.50024 16.3991 2.3188C16.5756 2.14536 16.8135 2.03593 17.0783 2.02793V2.00925H29.1885C29.7447 2.00925 30.1942 1.56099 30.1942 1.00594C30.1942 0.450939 29.7447 0.00268426 29.1885 0.00268426H15.0969C15.0915 0.00268426 15.0888 0.00268399 15.0835 0.00531653C15.0782 -1.63834e-07 15.0728 0 15.0648 0H12.1555H4.54553C4.54553 1.66505 5.89587 3.01255 7.56438 3.01255Z" fill="white"/>
<path d="M23.1508 8.03433C22.5946 8.03433 22.1454 8.48264 22.1454 9.03764C22.1454 9.59264 22.5946 10.0409 23.1508 10.0409H25.1642C25.7204 10.0409 26.1697 9.59264 26.1697 9.03764C26.1697 8.48264 25.7204 8.03433 25.1642 8.03433H23.1508Z" fill="white"/>
</svg>
